<svg id="Layer_1" data-name="Layer 1" xmlns="http://www.w3.org/2000/svg" xmlns:xlink="http://www.w3.org/1999/xlink" viewBox="0 0 1940.61 607.33"><defs><style>.cls-1,.cls-13,.cls-23{isolation:isolate;}.cls-1{font-size:38.08px;fill:#f36e21;font-family:CenturyGothic-Bold, Century Gothic;font-weight:700;letter-spacing:0.5em;}.cls-2{letter-spacing:0.2em;}.cls-3{letter-spacing:0.5em;}.cls-4{letter-spacing:0.2em;}.cls-5{fill:#fbb039;}.cls-5,.cls-6,.cls-7,.cls-8{stroke:#fff;stroke-width:3px;}.cls-20,.cls-22,.cls-5,.cls-6,.cls-7,.cls-8{stroke-miterlimit:10;}.cls-6{fill:#064e7c;}.cls-12,.cls-7{fill:#024e7c;}.cls-14,.cls-8{fill:#044e7c;}.cls-9{fill:url(#linear-gradient);}.cls-10{fill:url(#linear-gradient-2);}.cls-11{fill:url(#linear-gradient-3);}.cls-13{opacity:0.8;}.cls-15{fill:#0c132d;}.cls-16{fill:#121224;}.cls-17{fill:url(#linear-gradient-4);}.cls-18{fill:#141425;}.cls-19{fill:url(#linear-gradient-5);}.cls-20{fill:url(#linear-gradient-6);stroke:url(#linear-gradient-7);}.cls-21{fill:url(#linear-gradient-8);}.cls-22{fill:none;stroke:url(#linear-gradient-9);}.cls-23{opacity:0.82;}</style><linearGradient id="linear-gradient" x1="317.21" y1="913.93" x2="56.96" y2="913.93" gradientTransform="matrix(1, 0, 0, -1, 0, 1997.89)" gradientUnits="userSpaceOnUse"><stop offset="0.01" stop-color="#ffec3b" stop-opacity="0.4"/><stop offset="0.14" stop-color="#ffdc3b" stop-opacity="0.48"/><stop offset="0.35" stop-color="#ffc93a" stop-opacity="0.6"/><stop offset="0.56" stop-color="#fdbb3a" stop-opacity="0.73"/><stop offset="0.77" stop-color="#fcb339" stop-opacity="0.86"/><stop offset="1" stop-color="#fbb039"/></linearGradient><linearGradient id="linear-gradient-2" x1="249.51" y1="945.03" x2="31.44" y2="945.03" gradientTransform="matrix(1, 0, 0, -1, 0, 1997.89)" gradientUnits="userSpaceOnUse"><stop offset="0" stop-color="#fff33b" stop-opacity="0.4"/><stop offset="0.17" stop-color="#ffdc3b" stop-opacity="0.5"/><stop offset="0.36" stop-color="#ffc93a" stop-opacity="0.62"/><stop offset="0.57" stop-color="#fdbb3a" stop-opacity="0.74"/><stop offset="0.78" stop-color="#fcb339" stop-opacity="0.87"/><stop offset="1" stop-color="#fbb039"/></linearGradient><linearGradient id="linear-gradient-3" x1="156.86" y1="976.02" x2="33.82" y2="976.02" gradientTransform="matrix(1, 0, 0, -1, 0, 1997.89)" gradientUnits="userSpaceOnUse"><stop offset="0" stop-color="#fff33b" stop-opacity="0.2"/><stop offset="0.17" stop-color="#ffdc3a" stop-opacity="0.33"/><stop offset="0.36" stop-color="#ffc939" stop-opacity="0.49"/><stop offset="0.57" stop-color="#fdbb38" stop-opacity="0.65"/><stop offset="0.78" stop-color="#fcb338" stop-opacity="0.82"/><stop offset="1" stop-color="#fcb037"/></linearGradient><linearGradient id="linear-gradient-4" x1="333.24" y1="1146.29" x2="406.86" y2="1149.84" gradientTransform="matrix(1, 0, 0, -1, 0, 1997.89)" gradientUnits="userSpaceOnUse"><stop offset="0" stop-color="#8cc7ed" stop-opacity="0.8"/><stop offset="1" stop-color="#044e7c"/></linearGradient><linearGradient id="linear-gradient-5" x1="321.27" y1="1085.54" x2="411.98" y2="1092.82" gradientTransform="matrix(1, 0, 0, -1, 0, 1997.89)" gradientUnits="userSpaceOnUse"><stop offset="0" stop-color="#8fbdde"/><stop offset="1" stop-color="#5a78bb" stop-opacity="0.3"/></linearGradient><linearGradient id="linear-gradient-6" x1="651.6" y1="1227.87" x2="688.5" y2="1227.87" gradientTransform="matrix(1, -0.08, -0.08, -1, 102.13, 2072.17)" gradientUnits="userSpaceOnUse"><stop offset="0" stop-color="#2484c6"/><stop offset="1" stop-color="#2484c6" stop-opacity="0"/></linearGradient><linearGradient id="linear-gradient-7" x1="650.59" y1="1227.93" x2="689.23" y2="1227.93" gradientTransform="matrix(1, -0.08, -0.08, -1, 102.13, 2072.17)" gradientUnits="userSpaceOnUse"><stop offset="0" stop-color="#2484c6"/><stop offset="0.6" stop-color="#2484c6" stop-opacity="0"/><stop offset="1" stop-color="#2484c6" stop-opacity="0.78"/></linearGradient><linearGradient id="linear-gradient-8" x1="137.89" y1="1128.41" x2="749.77" y2="1177.33" xlink:href="#linear-gradient-4"/><linearGradient id="linear-gradient-9" x1="211.95" y1="1236.05" x2="281" y2="1236.02" gradientTransform="matrix(1, -0.08, -0.08, -1, 102.13, 2072.17)" xlink:href="#linear-gradient-4"/></defs><title>AERONex-Final_Light_BG</title><text class="cls-1" transform="translate(1289.05 592.19)">TECHNOLOGIES<tspan class="cls-2" x="510.07" y="0"> </tspan><tspan class="cls-3" x="528.34" y="0">LT</tspan><tspan class="cls-4" x="599.01" y="0">D.</tspan></text><path class="cls-5" d="M1353.94,1131.34V886.89a29.59,29.59,0,0,1,29.59-29.59h14a29.59,29.59,0,0,1,29.59,29.59v244.45a29.59,29.59,0,0,1-29.59,29.59h-14A29.59,29.59,0,0,1,1353.94,1131.34Z" transform="translate(-33.82 -614.71)"/><path class="cls-5" d="M1541.71,1127.05l-164.6-185.54a27,27,0,0,1,2.28-38.17l14.29-12.68a27,27,0,0,1,38.17,2.28l164.6,185.54a27,27,0,0,1-2.28,38.17l-14.29,12.68A27,27,0,0,1,1541.71,1127.05Z" transform="translate(-33.82 -614.71)"/><path class="cls-5" d="M1545.75,1131.69V887.24a29.59,29.59,0,0,1,29.59-29.59h14a29.59,29.59,0,0,1,29.59,29.59v244.45a29.59,29.59,0,0,1-29.59,29.59h-14A29.59,29.59,0,0,1,1545.75,1131.69Z" transform="translate(-33.82 -614.71)"/><path class="cls-5" d="M1722.81,1071.71h-58.47a27.59,27.59,0,0,1-27.59-27.59h0a27.59,27.59,0,0,1,27.59-27.59h58.47a27.59,27.59,0,0,1,27.59,27.59h0A27.59,27.59,0,0,1,1722.81,1071.71Z" transform="translate(-33.82 -614.71)"/><path class="cls-5" d="M1691.93,958.07v173.75a27.58,27.58,0,0,1-25.36,27.5c-.73.06-1.47.09-2.23.09s-1.49,0-2.23-.09a27.61,27.61,0,0,1-24.94-22.78c-.12-.65-.21-1.32-.27-2-.09-.93-.14-1.87-.14-2.82V958.07a27.59,27.59,0,0,1,55.17,0Z" transform="translate(-33.82 -614.71)"/><path class="cls-5" d="M1781.28,1131.73v27.59H1662.11a27.32,27.32,0,0,1-21.77-14l-.27-.47c-.25-.47-.49-.93-.71-1.41-.34-.72-.65-1.45-.93-2.2a21.07,21.07,0,0,1-.8-2.56s0,0,0,0c-.18-.68-.33-1.38-.46-2.09v-32.39h116.94a27.61,27.61,0,0,1,24.86,15.62c0,.08.08.15.11.24A31.64,31.64,0,0,1,1781.28,1131.73Z" transform="translate(-33.82 -614.71)"/><path class="cls-5" d="M1637.17,958.06v27.59h119.17a27.32,27.32,0,0,0,21.77-14l.27-.47c.25-.47.49-.93.71-1.41.34-.72.65-1.45.93-2.2a21.07,21.07,0,0,0,.8-2.56s0,0,0,0c.18-.68.33-1.38.46-2.09V930.5H1664.34a27.61,27.61,0,0,0-24.86,15.62c0,.08-.08.15-.11.24A31.64,31.64,0,0,0,1637.17,958.06Z" transform="translate(-33.82 -614.71)"/><path class="cls-5" d="M1930.1,1152.8,1795.85,977.57c-8.25-10.77-8.25-28.24,0-39h0c8.25-10.77,21.64-10.77,29.89,0L1960,1113.79c8.25,10.77,8.25,28.24,0,39h0C1951.73,1163.58,1938.35,1163.58,1930.1,1152.8Z" transform="translate(-33.82 -614.71)"/><path class="cls-5" d="M1960,977.58l-134.25,175.23c-8.25,10.77-21.64,10.77-29.89,0h0c-8.25-10.77-8.25-28.24,0-39L1930.1,938.57c8.25-10.77,21.64-10.77,29.89,0h0C1968.24,949.33,1968.24,966.8,1960,977.58Z" transform="translate(-33.82 -614.71)"/><path class="cls-6" d="M1067.38,1124.33V894.59a36.48,36.48,0,0,1,36.48-36.48h0a36.48,36.48,0,0,1,36.48,36.48v229.74a36.48,36.48,0,0,1-36.48,36.48h0A36.48,36.48,0,0,1,1067.38,1124.33Z" transform="translate(-33.82 -614.71)"/><path class="cls-6" d="M1103.17,856.87H1298.4A36.57,36.57,0,0,1,1335,893.44h0A36.57,36.57,0,0,1,1298.4,930H1103.17a36.57,36.57,0,0,1-36.57-36.57h0A36.57,36.57,0,0,1,1103.17,856.87Z" transform="translate(-33.82 -614.71)"/><path class="cls-6" d="M1261.63,1124.86V895a36.49,36.49,0,0,1,36.49-36.49h0A36.49,36.49,0,0,1,1334.61,895v229.83a36.49,36.49,0,0,1-36.49,36.49h0A36.48,36.48,0,0,1,1261.63,1124.86Z" transform="translate(-33.82 -614.71)"/><path class="cls-6" d="M1104.9,1087.83h193.22a36.49,36.49,0,0,1,36.49,36.49h0a36.49,36.49,0,0,1-36.49,36.49H1104.9a36.49,36.49,0,0,1-36.49-36.49h0A36.49,36.49,0,0,1,1104.9,1087.83Z" transform="translate(-33.82 -614.71)"/><path class="cls-6" d="M854.76,992.82H994.83a36.59,36.59,0,0,1,36.59,36.59h0A36.59,36.59,0,0,1,994.83,1066H854.76a36.59,36.59,0,0,1-36.59-36.59h0A36.59,36.59,0,0,1,854.76,992.82Z" transform="translate(-33.82 -614.71)"/><path class="cls-6" d="M818.6,1126.19V892a34.74,34.74,0,0,1,34.74-34.74H857A34.74,34.74,0,0,1,891.78,892V1126.2A34.74,34.74,0,0,1,857,1160.94h-3.7A34.75,34.75,0,0,1,818.6,1126.19Z" transform="translate(-33.82 -614.71)"/><path class="cls-6" d="M1046.59,894.71v134.18a36.59,36.59,0,0,1-36.59,36.59h0a36.59,36.59,0,0,1-36.59-36.59V894.71A36.59,36.59,0,0,1,1010,858.12h0A36.59,36.59,0,0,1,1046.59,894.71Z" transform="translate(-33.82 -614.71)"/><path class="cls-6" d="M986.14,1151.1l-87.95-87.95a33.26,33.26,0,0,1,0-47l4.72-4.72a33.26,33.26,0,0,1,47,0l88,87.95a33.26,33.26,0,0,1,0,47l-4.72,4.72A33.26,33.26,0,0,1,986.14,1151.1Z" transform="translate(-33.82 -614.71)"/><path class="cls-6" d="M854.76,857.3H1010a36.59,36.59,0,0,1,36.59,36.59h0A36.59,36.59,0,0,1,1010,930.48H854.76a36.59,36.59,0,0,1-36.59-36.59h0A36.59,36.59,0,0,1,854.76,857.3Z" transform="translate(-33.82 -614.71)"/><path class="cls-7" d="M731.58,1045.33H644.5c-15.24,0-27.59-13-27.59-29.15v-14.67c0-16.11,12.35-29.16,27.59-29.16h87.08c15.24,0,27.59,13,27.59,29.16v14.67C759.17,1032.28,746.82,1045.33,731.58,1045.33Z" transform="translate(-33.82 -614.71)"/><path class="cls-7" d="M686,895v229.81c0,19.18-14,34.87-31.75,36.38q-1.37.12-2.79.12c-.93,0-1.86,0-2.79-.12A33.54,33.54,0,0,1,627,1150.64a37,37,0,0,1-9.61-19.55c-.15-.87-.27-1.75-.34-2.63-.11-1.23-.17-2.48-.17-3.73V895c0-20.16,15.46-36.49,34.52-36.49a33.52,33.52,0,0,1,24.42,10.69A37.4,37.4,0,0,1,686,895Z" transform="translate(-33.82 -614.71)"/><path class="cls-7" d="M797.82,1124.73v36.49H648.64A33.54,33.54,0,0,1,627,1150.64a36.25,36.25,0,0,1-5.65-8l-.33-.63c-.31-.61-.61-1.23-.89-1.87-.42-1-.82-1.92-1.16-2.91a30.69,30.69,0,0,1-1-3.39s0,0,0-.05c-.23-.89-.42-1.82-.57-2.76v-42.84H763.81c13.71,0,25.54,8.44,31.12,20.67,0,.09.09.2.13.32A44,44,0,0,1,797.82,1124.73Z" transform="translate(-33.82 -614.71)"/><path class="cls-7" d="M617.42,895v36.5H766.6a33.54,33.54,0,0,0,21.61-10.58,36.31,36.31,0,0,0,5.65-8l.33-.62c.31-.61.61-1.24.89-1.87.42-1,.82-1.92,1.16-2.92a30.69,30.69,0,0,0,1-3.39s0,0,0,0c.23-.9.42-1.83.57-2.77V858.54H651.43c-13.71,0-25.54,8.44-31.12,20.66,0,.1-.09.2-.13.32A44,44,0,0,0,617.42,895Z" transform="translate(-33.82 -614.71)"/><polygon class="cls-8" points="566.02 263.09 566.54 546.41 493.37 546.41 492.99 344.46 566.02 263.09"/><polygon class="cls-8" points="566.22 369.28 566.35 443.24 404.34 443.24 470.72 369.28 566.22 369.28"/><path class="cls-9" d="M317.21,957.35c-14.67,10-29.29,20.35-43.77,30.77s-28.86,21-43.11,31.8c-28.47,21.55-56.49,43.72-83.36,67.19-13.41,11.75-26.55,23.83-39,36.56-6.21,6.37-12.25,12.91-17.93,19.72A158.66,158.66,0,0,0,74.6,1164.9a63.45,63.45,0,0,0-5.47,11.88,84.91,84.91,0,0,0-3.29,12.77,41.33,41.33,0,0,0-.31,13A20.13,20.13,0,0,0,71,1213.88a23.7,23.7,0,0,0,11.36,6,51,51,0,0,0,13.18,1.2,89.87,89.87,0,0,0,13.28-1.43,108.45,108.45,0,0,0,13-3.16,107.32,107.32,0,0,1-12.94,3.58,90.44,90.44,0,0,1-13.33,1.88,52,52,0,0,1-13.51-.79,25.31,25.31,0,0,1-12.29-6,22.09,22.09,0,0,1-6.41-12.22,44.05,44.05,0,0,1-.13-13.75,88.33,88.33,0,0,1,3-13.31,67.09,67.09,0,0,1,5.33-12.65,161.9,161.9,0,0,1,15.1-22.56c5.55-7.12,11.45-13.94,17.52-20.58,12.15-13.28,25-25.88,38.11-38.15,26.28-24.5,53.7-47.69,81.59-70.27q20.92-16.92,42.25-33.35c14.22-11,28.49-21.77,43.05-32.41Z" transform="translate(-33.82 -614.71)"/><path class="cls-10" d="M249.51,931q-18.91,10.14-37.12,21.53T177,976.77a433.25,433.25,0,0,0-63.65,57.47,323.51,323.51,0,0,0-48.75,70.62,272.4,272.4,0,0,0-26.18,82.05,274.05,274.05,0,0,1,23-83.55c12-26.52,28-51.21,46.61-73.68a442.06,442.06,0,0,1,62.51-61.19q17-13.8,35.14-26.17t37-23.5Z" transform="translate(-33.82 -614.71)"/><path class="cls-11" d="M138,915.2a11.78,11.78,0,0,0,6.55,7.1,11.65,11.65,0,0,0,12.29-2.73c-5.73,6.15-13.2,14.31-21.78,24.09-6.73,7.67-14.93,16.89-24.21,28.58-4.91,6.19-29.85,39.14-36.59,50.61S59,1048,54.62,1057.07s-13.11,30.22-14.74,36.77-6.92,26.65-5.46,34.71c0,0-1.82-15.6.91-28.71s10.19-36,13.29-43.69,18.57-41.14,23.57-49.7c15.43-26.38,28.37-45.62,32.86-51.7A435.72,435.72,0,0,1,138,915.2Z" transform="translate(-33.82 -614.71)"/><path class="cls-12" d="M740.21,614.73a1.28,1.28,0,0,1,1.35,1.74c-10.26,26.38-22,54.13-35.53,82.93-14,29.87-28.39,57.58-42.64,83.1a1.27,1.27,0,0,1-1.31.64l-2.13-.33c-4.82-.77-8.39-1.43-8.54-1.46-11.41-2.15-47.65,6.34-89.92,18.28a1.29,1.29,0,0,1-1.33-2.09c36.69-41.47,146.07-165.07,152.32-172.41C718.58,618,734.47,615.42,740.21,614.73Z" transform="translate(-33.82 -614.71)"/><path class="cls-13" d="M655.63,780.21s38.23-69.7,42.6-79.51,42-85.51,42-85.51,3.46-3.4-1.06,7.87-13.5,32.87-15.57,37.64-12.77,28.63-12.77,28.63L691.73,729l-28.34,53.44Z" transform="translate(-33.82 -614.71)"/><path class="cls-14" d="M310.51,1182.9,610.38,856.74l9.89-11.31a5.18,5.18,0,0,0,1.26-3.82l-.61-7.64c-.13-1.63-80.28-5.4-142.25,47.89-1.09,1.56-2.18,3.13-3.28,4.69-55.75,77.31-208.64,289.75-224.15,317.36-1.59,2.82-6.13,10.92-3.58,13.73,3.81,4.19,20.85-6.41,29.2-10.61A133.61,133.61,0,0,0,310.51,1182.9Z" transform="translate(-33.82 -614.71)"/><path class="cls-15" d="M404.58,843.71c.36,4.51-2.49,8.43-6.38,8.74s-7.33-3.09-7.69-7.61,2.49-8.43,6.38-8.74S404.22,839.19,404.58,843.71Z" transform="translate(-33.82 -614.71)"/><path class="cls-16" d="M344.55,867.68s-1.33-10.31,11.88-17.52,18.77-9.22,18.77-9.22l5.46-1.37s1.22,8.08,4.43,9.65a49.77,49.77,0,0,0,8.12,2.77Z" transform="translate(-33.82 -614.71)"/><path class="cls-17" d="M334.92,872.28a19.7,19.7,0,0,1,1.37-11.58A30.65,30.65,0,0,1,343,851l2.16-2c.73-.66,1.53-1.24,2.29-1.87a57.51,57.51,0,0,1,4.8-3.44,103.91,103.91,0,0,1,10.23-5.9,109.19,109.19,0,0,1,22.06-8.41,54.43,54.43,0,0,1,5.82-1.15,24.43,24.43,0,0,1,3-.23,9.68,9.68,0,0,1,3,.34,27.34,27.34,0,0,1,5.22,2.9A33.85,33.85,0,0,1,406.1,835l-.43.47a16.77,16.77,0,0,0-7.51-3.34,6.26,6.26,0,0,0-3.89.68,6.62,6.62,0,0,0-2.62,3,12.47,12.47,0,0,0-1.23,3.91,15.8,15.8,0,0,0,.09,4.12,20.54,20.54,0,0,0,3,7.67l.29.44-.48.17-49.65,17.6-.66.23v-.68a19.83,19.83,0,0,1,.57-4.7,21.06,21.06,0,0,1,1.55-4.44,22.66,22.66,0,0,1,2.46-4c.52-.59,1-1.21,1.56-1.76s1.11-1.12,1.74-1.59a44.52,44.52,0,0,1,8-4.8q4.13-2.1,8.39-3.91c2.84-1.2,5.72-2.32,8.66-3.27a22.35,22.35,0,0,1,4.56-1.11,1,1,0,0,1,.7.25,1.28,1.28,0,0,1,.37.61,5.21,5.21,0,0,1,.18,1.2c.05.78.07,1.53.19,2.28a7,7,0,0,0,1.88,4,7.24,7.24,0,0,0,1.79,1.36,6.38,6.38,0,0,0,1,.53,8,8,0,0,0,1.05.44,14.74,14.74,0,0,0,9,.18l0,.09a15,15,0,0,1-9.14,0,9.06,9.06,0,0,1-1.09-.42,6.78,6.78,0,0,1-1-.53,8,8,0,0,1-1.9-1.39,7.36,7.36,0,0,1-2.07-4.19,23.29,23.29,0,0,1-.22-2.32c-.06-.73-.14-1.62-.74-1.55a22.33,22.33,0,0,0-4.37,1.13c-2.9,1-5.75,2.12-8.56,3.35s-5.58,2.56-8.29,4a43.73,43.73,0,0,0-7.76,4.79,21.79,21.79,0,0,0-1.65,1.54c-.53.53-1,1.14-1.48,1.7a22.84,22.84,0,0,0-2.32,3.86,20.41,20.41,0,0,0-1.49,4.25,19.19,19.19,0,0,0-.55,4.43l-.66-.45,49.72-17.42-.2.61a21.45,21.45,0,0,1-3.13-8,17,17,0,0,1-.07-4.34,13.12,13.12,0,0,1,1.33-4.14,7.32,7.32,0,0,1,2.92-3.27,6.87,6.87,0,0,1,4.32-.75,13.73,13.73,0,0,1,4.14,1.27,21.69,21.69,0,0,1,3.69,2.23l-.43.47a31.7,31.7,0,0,0-9.53-6.58,9.09,9.09,0,0,0-2.82-.33,23.75,23.75,0,0,0-2.91.22,53.69,53.69,0,0,0-5.76,1.11,110.58,110.58,0,0,0-22,8.25,104.51,104.51,0,0,0-10.24,5.82,57.73,57.73,0,0,0-4.8,3.4c-.76.62-1.56,1.2-2.29,1.85l-2.15,2a30.49,30.49,0,0,0-6.67,9.59,19.39,19.39,0,0,0-1.43,11.48Z" transform="translate(-33.82 -614.71)"/><path class="cls-15" d="M399.63,910.57a6.42,6.42,0,0,1-1.53.28c-.62-.2-1.45-.48-2-.71-.8-.36-3.47-1.5-6.08-6.45a21,21,0,0,1-2.14-9c.78-3.51,2.89-6.3,5.84-7.21,4.76-1.49,9.95,2.49,11.57,8.88S404.4,909.08,399.63,910.57Z" transform="translate(-33.82 -614.71)"/><path class="cls-18" d="M326.71,909a77.74,77.74,0,0,0,15.37,5c22.24,4.7,41.18-1.56,50.8-5.64.15.15.3.3.45.43,3.05,2.75,7.3,3,10.43,2.75,0,0,8.28-1.9,7.18-13,0,0,.79,10.86-5.61,16.72s-52.63,17.64-56,18.37-13.12,1.33-13.12,1.33c-.84-.15-8.15-1.6-11.6-8.49A16.31,16.31,0,0,1,326.71,909Z" transform="translate(-33.82 -614.71)"/><path class="cls-19" d="M401.8,882.83a10,10,0,0,0-7.73.27,10.21,10.21,0,0,0-5.1,5.77,16.22,16.22,0,0,0-.75,7.79,22.85,22.85,0,0,0,2.34,7.5,15.9,15.9,0,0,0,2.25,3.2,12.16,12.16,0,0,0,3.09,2.35,11.67,11.67,0,0,0,1.78.77,11.29,11.29,0,0,0,1.9.41,10.44,10.44,0,0,0,3.86-.15,9,9,0,0,0,3.49-1.56,8,8,0,0,0,2.31-3,17.45,17.45,0,0,0,1.37-7.63l.64-.06a23.19,23.19,0,0,1-2.32,12.69,17.74,17.74,0,0,1-4.18,5c-.45.32-.91.62-1.36.92l-.68.46c-.24.13-.49.24-.74.36l-1.49.7c-.5.22-1,.34-1.55.51-8.34,2.14-16.44,4.86-24.61,7.52S358,932,349.62,934c-2.1.49-4.21.93-6.35,1.25a21.73,21.73,0,0,1-6.55.21,18.69,18.69,0,0,1-6.06-2.55,21.73,21.73,0,0,1-5-4.28,16.18,16.18,0,0,1-3.19-5.73,12.7,12.7,0,0,1-.24-6.56,15.82,15.82,0,0,1,2.79-5.92,25.69,25.69,0,0,1,4.51-4.69,60,60,0,0,1,10.85-7,127.64,127.64,0,0,1,11.76-5.29c4-1.59,8-3,12.13-4.35s8.21-2.53,12.36-3.64,8.32-2.14,12.53-3a44.3,44.3,0,0,1,6.39-.81,19.26,19.26,0,0,1,3.22.09A5.75,5.75,0,0,1,401.8,882.83Zm0,0a5.47,5.47,0,0,0-3-1,18.11,18.11,0,0,0-3.21,0,47,47,0,0,0-6.36.9c-4.19.9-8.34,2-12.47,3.16s-8.23,2.42-12.29,3.77-8.1,2.79-12.08,4.39a128,128,0,0,0-11.68,5.33,60.28,60.28,0,0,0-10.69,7,24.55,24.55,0,0,0-4.36,4.58,15.07,15.07,0,0,0-2.63,5.65,11.88,11.88,0,0,0,.26,6.15,15.29,15.29,0,0,0,3.06,5.42,20.71,20.71,0,0,0,4.77,4.08,18,18,0,0,0,5.75,2.4,21.26,21.26,0,0,0,6.25-.25c2.1-.32,4.19-.77,6.27-1.27,8.3-2.05,16.48-4.66,24.65-7.28s16.36-5.32,24.65-7.4c.5-.17,1-.27,1.5-.48l1.43-.67.71-.34.65-.43,1.31-.87a16.8,16.8,0,0,0,4-4.79,22.62,22.62,0,0,0,2.3-12.28l.64-.06a18.1,18.1,0,0,1-1.47,7.92,8.77,8.77,0,0,1-2.49,3.24,9.54,9.54,0,0,1-3.73,1.65,10.87,10.87,0,0,1-4.06.14,12.44,12.44,0,0,1-2-.45,11.93,11.93,0,0,1-1.86-.82,12.86,12.86,0,0,1-3.21-2.47,15.77,15.77,0,0,1-2.29-3.33,23.5,23.5,0,0,1-2.28-7.67,16.42,16.42,0,0,1,.87-7.92A10.39,10.39,0,0,1,394,883,10.16,10.16,0,0,1,401.8,882.83Z" transform="translate(-33.82 -614.71)"/><path class="cls-20" d="M674.33,782.12a45.53,45.53,0,0,1-20.85,16.26s12.43,9.23,14.94,8.66,16.22-10.43,21.14-20.33Z" transform="translate(-33.82 -614.71)"/><path class="cls-21" d="M182.14,867.3Q168,880.94,154,894.73l-3.47,3.46-1.72,1.75a21.22,21.22,0,0,0-1.55,1.76,12.9,12.9,0,0,0-2.94,8.37,9.81,9.81,0,0,0,1.1,4.19,6.32,6.32,0,0,0,1.22,1.62,2.09,2.09,0,0,0,1.33.66.62.62,0,0,0,.41-.14l.12-.09.22-.2.44-.4,1.77-1.66,3.56-3.38,28.37-27.2,28.43-27.13,1.08,3.9a35.64,35.64,0,0,0-6.53-.69c-1.1-.06-2.2.05-3.29.08s-2.2.2-3.28.4a41.94,41.94,0,0,0-6.44,1.55c-1.05.35-2.09.73-3.11,1.15a31.08,31.08,0,0,0-2.88,1.36l-1.46.8-1.29-1a41.46,41.46,0,0,1-4.81-4.2,17,17,0,0,1-2.19-2.74,7.59,7.59,0,0,1-.5-.91c-.09-.19-.14-.28-.25-.56a3.25,3.25,0,0,1,0-2,4.21,4.21,0,0,1,.91-1.56,9.3,9.3,0,0,1,.76-.77,23.12,23.12,0,0,1,2.71-2c.88-.58,1.76-1.11,2.65-1.63,1.76-1,3.54-2,5.31-2.93,3.56-1.87,7.14-3.63,10.74-5.35s7.2-3.39,10.86-5l1-.44,1.09.34,15.1,4.75,15.08,4.84,30.15,9.68L333,872.7l-2.14,0,61.27-21.3c10.23-3.53,20.5-6.92,30.78-10.29l30.87-10c41.21-13.19,82.54-26,124.35-37.38,10.45-2.85,21-5.44,31.56-7.87s21.23-4.64,32.15-6l4.13-.4c1.4-.09,2.8-.16,4.21-.21l2.16,0c.36,0,.72,0,1.08,0l1.14.13c1.59.17,2.84.41,4.17.64l15.9,2.69C685.27,784.45,696,786,706.66,788c5.34,1,10.67,2.08,16,3.4a96,96,0,0,1,15.68,5.18,25.07,25.07,0,0,1,7.28,4.68,10.52,10.52,0,0,1,1.48,1.86,8.17,8.17,0,0,1,.95,2.36,6.89,6.89,0,0,1,0,2.6,8.71,8.71,0,0,1-.84,2.31,14.59,14.59,0,0,1-2.79,3.51c-.53.51-1.06,1-1.59,1.38l-1.6,1.3c-2.08,1.8-4.38,3.29-6.59,4.9A197.19,197.19,0,0,1,706,837a315,315,0,0,1-30.31,11.65l-.13-.38c10.2-3.53,20.21-7.64,30-12.17a197,197,0,0,0,28.23-15.79c2.15-1.62,4.4-3.12,6.42-4.92,1-.88,2.11-1.7,3.05-2.63a12.85,12.85,0,0,0,2.43-3.13,5.63,5.63,0,0,0,.63-3.76,6.72,6.72,0,0,0-2-3.3,23.09,23.09,0,0,0-6.78-4.2,94.9,94.9,0,0,0-15.4-4.84c-5.25-1.26-10.55-2.29-15.87-3.23-10.64-1.88-21.34-3.37-32-4.94l-16-2.56c-1.33-.21-2.67-.45-4-.57l-1-.11c-.33,0-.67,0-1,0l-2,0c-1.34.06-2.69.14-4,.24l-4,.43c-10.7,1.42-21.26,3.75-31.78,6.22s-21,5.23-31.39,8.08C537.29,808.53,496,821.48,454.9,834.79q-30.84,10-61.55,20.41L332,876.29l-.12,0-.12,0-120.48-39.1h.22c-7.25,3.19-14.46,6.5-21.5,10.1-1.76.91-3.51,1.84-5.22,2.82a33,33,0,0,0-4.89,3.25,3.1,3.1,0,0,0-.84,1,.42.42,0,0,0,0,.18l.14.31a4.65,4.65,0,0,0,.34.62,14.5,14.5,0,0,0,1.81,2.28,38,38,0,0,0,4.4,3.91l-.31,0A39.42,39.42,0,0,1,192,859a43.6,43.6,0,0,1,6.87-1.59c1.16-.2,2.34-.28,3.51-.4s2.35-.13,3.53-.06a38.42,38.42,0,0,1,7,.81l.52.1-.39.37q-28.68,26.88-57.42,53.69L152,915.22l-1.82,1.66a9.75,9.75,0,0,1-1,.81,2.16,2.16,0,0,1-1.29.37,3.66,3.66,0,0,1-2.32-1.1,7.76,7.76,0,0,1-1.49-2,11.26,11.26,0,0,1-1.2-4.83,14.12,14.12,0,0,1,3.35-9.18,44.3,44.3,0,0,1,3.42-3.56l3.53-3.42c9.45-9.08,19-18,28.63-26.93Z" transform="translate(-33.82 -614.71)"/><path class="cls-22" d="M216.46,835.58S252.31,808,259,803s19.92-4.34,22.1-4.51-47.77,42.53-47.77,42.53Z" transform="translate(-33.82 -614.71)"/><path class="cls-23" d="M621.25,838.25s1.18,4.7-1,7.18-14.88,16.74-14.88,16.74l-23.82,25.91L554.2,917.84l-46.5,50.58L455.65,1025,403,1082.32l-49.26,53.57-41.3,44.92s-13.53,14.38-28.84,22.58-22.38,11.78-22.38,11.78a89.85,89.85,0,0,1-9.77,3.42s6.92-3.33,14.2-7.16,23.48-13.29,26.58-15.47,11.47-8.37,29.31-28.22S620.91,834,620.91,834Z" transform="translate(-33.82 -614.71)"/></svg>